#!OML:ASF X:\für Bonn\!DataBase\2005_08_12_Daniel\c3d\Daniel.ASF
:FULLY-SPECIFIED
:DEGREES
1
root 1.55838 17.103 1.77534 176.892 -185.083 538.011
lowerback 7.48043 0.340556 4.15125
upperback 0.254129 0.730168 -1.97238
thorax -3.85823 0.271173 -4.47033
lowerneck -1.79958 -0.0733174 -4.04011
upperneck 10.9087 -0.00600903 1.41757
head 3.87861 -0.102999 1.18214
rclavicle -4.95347e-014 2.38542e-014
rhumerus -38.0143 8.70368 -97.4865
rradius 37.4366
rwrist 4.25646
rhand -15.0777 14.1342
rfingers 7.12502
rthumb 11.0898 -15.5528
lclavicle -4.95347e-014 2.38542e-014
lhumerus -52.272 43.0638 48.7825
lradius 19.3784
lwrist -37.0087
lhand -12.2524 -5.71568
lfingers 7.12502
lthumb 13.8138 23.8057
rfemur 29.0267 7.63921 30.7586
rtibia 5.08889e-014
rfoot -18.7309 -2.62058
rtoes -3.3683
lfemur -31.3903 -16.0651 -14.3753
ltibia 25.8112
lfoot -16.8892 13.9342
ltoes -3.09185
2
root 1.58261 17.0832 1.95285 176.927 -185.005 538.139
lowerback 7.45045 0.425932 3.81246
upperback 0.203908 0.812813 -2.00715
thorax -3.88863 0.316379 -4.32296
lowerneck -1.88396 -0.117165 -4.01167
upperneck 10.9553 -0.0644897 1.43377
head 3.91344 -0.130364 1.18117
rclavicle -9.80257e-015 1.51076e-014
rhumerus -38.2456 8.67202 -97.6617
rradius 37.8283
rwrist 3.94022
rhand -15.0992 14.2844
rfingers 7.12502
rthumb 11.0691 -15.4037
lclavicle -9.80257e-015 1.51076e-014
lhumerus -53.0932 43.6327 47.9515
lradius 19.3009
lwrist -37.266
lhand -12.1643 -5.62033
lfingers 7.12502
lthumb 13.8987 23.8952
rfemur 29.5683 7.13605 30.3464
rtibia 1.27222e-014
rfoot -18.4074 -1.98491
rtoes -3.11276
lfemur -31.355 -15.2236 -14.9465
ltibia 26.3222
lfoot -15.2097 12.9883
ltoes -2.33616
3
root 1.6066 17.0674 2.13476 176.943 -184.925 538.285
lowerback 7.39048 0.510868 3.44588
upperback 0.176808 0.891127 -2.05454
thorax -3.87956 0.361413 -4.1717
lowerneck -1.97822 -0.155166 -3.96396
upperneck 10.9835 -0.116753 1.45755
head 3.94337 -0.153331 1.17938
rclavicle -1.35671e-014 1.66979e-014
rhumerus -38.4486 8.61654 -97.8553
rradius 38.1971
rwrist 3.6159
rhand -15.1251 14.4451
rfingers 7.12502
rthumb 11.0441 -15.2444
lclavicle -1.35671e-014 1.66979e-014
lhumerus -53.9869 44.2503 47.0223
lradius 19.2419
lwrist -37.6144
lhand -12.0173 -5.57257
lfingers 7.12502
lthumb 14.0403 23.9332
rfemur 30.1337 6.63849 29.9088
rtibia 3.18055e-015
rfoot -17.9604 -1.36984
rtoes -2.77943
lfemur -31.3681 -14.441 -15.5085
ltibia 27.0399
lfoot -13.5495 11.969
ltoes -0.964397
4
root 1.63128 17.0525 2.31891 176.94 -184.858 538.484
lowerback 7.35889 0.596835 3.01724
upperback 0.139883 0.96595 -2.11917
thorax -3.89852 0.404968 -4.00368
lowerneck -2.07892 -0.197796 -3.89326
upperneck 11.0489 -0.176177 1.47876
head 3.98787 -0.179288 1.17263
rclavicle 3.01904e-015 0
rhumerus -38.6837 8.48139 -98.04
rradius 38.5789
rwrist 3.31223
rhand -15.1526 14.5954
rfingers 7.12502
rthumb 11.0176 -15.0955
lclavicle 3.01904e-015 0
lhumerus -54.8334 44.6939 46.2309
lradius 19.2319
lwrist -37.809
lhand -11.8591 -5.5365
lfingers 7.12502
lthumb 14.1928 23.9586
rfemur 30.7211 6.13655 29.4016
rtibia -1.59028e-014
rfoot -17.3937 -0.769424
rtoes -2.48132
lfemur -31.4 -13.7283 -16.098
ltibia 27.9168
lfoot -11.981 10.8915
ltoes 0.196692
5
root 1.65711 17.0388 2.50367 176.919 -184.805 538.69
lowerback 7.36018 0.677608 2.58835
upperback 0.0986015 1.03461 -2.1813
thorax -3.94201 0.445089 -3.83324
lowerneck -2.1402 -0.241905 -3.81203
upperneck 11.0861 -0.237803 1.47816
head 4.01447 -0.206604 1.15607
rclavicle -8.92046e-015 -1.11319e-014
rhumerus -38.925 8.38731 -98.2193
rradius 38.9544
rwrist 2.90476
rhand -15.1569 14.7233
rfingers 7.12502
rthumb 11.0134 -14.9678
lclavicle -8.92046e-015 -1.11319e-014
lhumerus -55.6514 45.0889 45.5038
lradius 19.2172
lwrist -37.9859
lhand -11.7445 -5.39475
lfingers 7.12502
lthumb 14.3032 24.0926
rfemur 31.3097 5.62822 28.8706
rtibia -3.18055e-015
rfoot -16.6864 -0.203013
rtoes -2.09301
lfemur -31.4382 -13.0937 -16.6808
ltibia 28.8783
lfoot -10.5333 9.87576
ltoes 0.624155
6
root 1.68453 17.0247 2.68945 176.888 -184.75 538.946
lowerback 7.40004 0.751344 2.10946
upperback 0.0338501 1.08921 -2.25399
thorax -4.03429 0.478159 -3.6456
lowerneck -2.18536 -0.277099 -3.65416
upperneck 11.1653 -0.286925 1.4208
head 4.05142 -0.227371 1.10743
rclavicle -2.73329e-014 5.56597e-015
rhumerus -39.221 8.28378 -98.411
rradius 39.3247
rwrist 2.58432
rhand -15.1466 14.8342
rfingers 7.12502
rthumb 11.0233 -14.8564
lclavicle -2.73329e-014 5.56597e-015
lhumerus -56.5327 45.4308 44.7397
lradius 19.1898
lwrist -38.1713
lhand -11.5797 -5.29005
lfingers 7.12502
lthumb 14.462 24.186
rfemur 31.9087 5.13401 28.2683
rtibia 3.18055e-015
rfoot -15.8471 0.329211
rtoes -1.63332
lfemur -31.448 -12.4558 -17.3184
ltibia 29.8586
lfoot -9.33317 8.74355
ltoes 0.334022
